<?xml version="1.0" encoding="UTF-8"?>
<!DOCTYPE svg PUBLIC "-//W3C//DTD SVG 1.1//EN" "http://www.w3.org/Graphics/SVG/1.1/DTD/svg11.dtd">
<!-- Creator: CorelDRAW 2021 (64-Bit) -->
<svg xmlns="http://www.w3.org/2000/svg" xml:space="preserve" width="3.88097in" height="3.36455in" version="1.1" style="shape-rendering:geometricPrecision; text-rendering:geometricPrecision; image-rendering:optimizeQuality; fill-rule:evenodd; clip-rule:evenodd"
viewBox="0 0 347.01 300.83"
 xmlns:xlink="http://www.w3.org/1999/xlink"
 xmlns:xodm="http://www.corel.com/coreldraw/odm/2003">
 <defs>
  <style type="text/css">
   <![CDATA[
    .fil0 {fill:#FFD740}
   ]]>
  </style>
 </defs>
 <g id="Layer_x0020_1">
  <metadata id="CorelCorpID_0Corel-Layer"/>
  <path class="fil0" d="M98.36 10.3l33.51 0.48 -22.97 39.4c-10.57,28.28 -43.28,51.96 -26.24,93.41 17.58,42.78 57.45,37.59 89,37.93l-33.17 58.82 35.02 60.49 30.78 -52.15c19.28,-33.3 40.8,-67.22 17.63,-105.12l-10.42 -10.75c-20.98,-16.34 -42.52,-11.21 -70.89,-13.36l62.71 -108.71 32.9 -0.46 -46.12 80.77 105.6 0.8 51.29 -91.85 -347.01 0.07c0.57,2.77 43.68,80.08 51.82,90.24l46.54 -80.01z"/>
 </g>
</svg>
