<?xml version="1.0" encoding="UTF-8"?>
<!DOCTYPE svg PUBLIC "-//W3C//DTD SVG 1.1//EN" "http://www.w3.org/Graphics/SVG/1.1/DTD/svg11.dtd">
<!-- Creator: CorelDRAW 2021 (64-Bit) -->
<svg xmlns="http://www.w3.org/2000/svg" xml:space="preserve" width="3.88097in" height="3.36455in" version="1.1" style="shape-rendering:geometricPrecision; text-rendering:geometricPrecision; image-rendering:optimizeQuality; fill-rule:evenodd; clip-rule:evenodd"
viewBox="0 0 619.58 537.14"
 xmlns:xlink="http://www.w3.org/1999/xlink"
 xmlns:xodm="http://www.corel.com/coreldraw/odm/2003">
 <defs>
  <style type="text/css">
   <![CDATA[
    .fil0 {fill:#2A2200}
   ]]>
  </style>
 </defs>
 <g id="Layer_x0020_1">
  <metadata id="CorelCorpID_0Corel-Layer"/>
  <path class="fil0" d="M175.63 18.39l59.84 0.86 -41 70.34c-18.88,50.5 -77.27,92.77 -46.85,166.79 31.39,76.38 102.58,67.13 158.91,67.72l-59.22 105.03 62.52 108.01 54.97 -93.12c34.42,-59.46 72.85,-120.02 31.47,-187.69l-18.61 -19.19c-37.46,-29.17 -75.92,-20.01 -126.58,-23.85l111.96 -194.11 58.75 -0.82 -82.34 144.21 188.55 1.42 91.58 -164 -619.58 0.12c1.02,4.95 77.99,142.99 92.53,161.13l83.1 -142.86z"/>
 </g>
</svg>
