<?xml version="1.0" encoding="UTF-8"?>
<!DOCTYPE svg PUBLIC "-//W3C//DTD SVG 1.1//EN" "http://www.w3.org/Graphics/SVG/1.1/DTD/svg11.dtd">
<!-- Creator: CorelDRAW 2021 (64-Bit) -->
<svg xmlns="http://www.w3.org/2000/svg" xml:space="preserve" width="5.46393in" height="5.46393in" version="1.1" style="shape-rendering:geometricPrecision; text-rendering:geometricPrecision; image-rendering:optimizeQuality; fill-rule:evenodd; clip-rule:evenodd"
viewBox="0 0 627.09 627.09"
 xmlns:xlink="http://www.w3.org/1999/xlink"
 xmlns:xodm="http://www.corel.com/coreldraw/odm/2003">
 <defs>
  <style type="text/css">
   <![CDATA[
    .fil0 {fill:#2A2200}
    .fil1 {fill:#FFD740}
   ]]>
  </style>
 </defs>
 <g id="Layer_x0020_1">
  <metadata id="CorelCorpID_0Corel-Layer"/>
  <rect class="fil0" width="627.09" height="627.09" rx="96.97" ry="96.97"/>
  <path class="fil1" d="M217.1 165.83l43.02 0.62 -29.48 50.57c-13.57,36.3 -55.55,66.69 -33.68,119.91 22.56,54.91 73.75,48.26 114.24,48.69l-42.57 75.5 44.95 77.65 39.52 -66.94c24.75,-42.75 52.37,-86.29 22.63,-134.93l-13.38 -13.8c-26.93,-20.97 -54.58,-14.38 -91,-17.14l80.49 -139.54 42.24 -0.59 -59.2 103.67 135.55 1.02 65.84 -117.9 -445.42 0.09c0.74,3.56 56.07,102.8 66.52,115.84l59.74 -102.7z"/>
 </g>
</svg>
