<?xml version="1.0" encoding="UTF-8"?>
<!DOCTYPE svg PUBLIC "-//W3C//DTD SVG 1.1//EN" "http://www.w3.org/Graphics/SVG/1.1/DTD/svg11.dtd">
<!-- Creator: CorelDRAW 2021 (64-Bit) -->
<svg xmlns="http://www.w3.org/2000/svg" xml:space="preserve" width="5.46393in" height="5.46393in" version="1.1" style="shape-rendering:geometricPrecision; text-rendering:geometricPrecision; image-rendering:optimizeQuality; fill-rule:evenodd; clip-rule:evenodd"
viewBox="0 0 842.38 842.38"
 xmlns:xlink="http://www.w3.org/1999/xlink"
 xmlns:xodm="http://www.corel.com/coreldraw/odm/2003">
 <defs>
  <style type="text/css">
   <![CDATA[
    .fil1 {fill:#2A2200}
    .fil0 {fill:url(#id0)}
   ]]>
  </style>
  <linearGradient id="id0" gradientUnits="userSpaceOnUse" x1="531.34" y1="363.07" x2="939.4" y2="131.02">
   <stop offset="0" style="stop-opacity:1; stop-color:#FFD740"/>
   <stop offset="1" style="stop-opacity:1; stop-color:#FEFEFE"/>
  </linearGradient>
 </defs>
 <g id="Layer_x0020_1">
  <metadata id="CorelCorpID_0Corel-Layer"/>
  <rect class="fil0" width="842.38" height="842.38" rx="130.26" ry="130.26"/>
  <path class="fil1" d="M293.17 222.76l57.78 0.83 -39.6 67.93c-18.23,48.77 -74.62,89.59 -45.24,161.07 30.31,73.76 99.07,64.82 153.46,65.4l-57.19 101.43 60.38 104.31 53.08 -89.93c33.24,-57.42 70.35,-115.91 30.39,-181.25l-17.97 -18.53c-36.18,-28.17 -73.32,-19.32 -122.24,-23.03l108.12 -187.45 56.74 -0.79 -79.52 139.26 182.09 1.37 88.44 -158.37 -598.33 0.12c0.99,4.78 75.31,138.09 89.36,155.6l80.25 -137.96z"/>
 </g>
</svg>
