<?xml version="1.0" encoding="UTF-8"?>
<!DOCTYPE svg PUBLIC "-//W3C//DTD SVG 1.1//EN" "http://www.w3.org/Graphics/SVG/1.1/DTD/svg11.dtd">
<!-- Creator: CorelDRAW 2021 (64-Bit) -->
<svg xmlns="http://www.w3.org/2000/svg" xml:space="preserve" width="3.88097in" height="3.36455in" version="1.1" style="shape-rendering:geometricPrecision; text-rendering:geometricPrecision; image-rendering:optimizeQuality; fill-rule:evenodd; clip-rule:evenodd"
viewBox="0 0 444.86 385.66"
 xmlns:xlink="http://www.w3.org/1999/xlink"
 xmlns:xodm="http://www.corel.com/coreldraw/odm/2003">
 <defs>
  <style type="text/css">
   <![CDATA[
    .fil0 {fill:#FFFCF0}
   ]]>
  </style>
 </defs>
 <g id="Layer_x0020_1">
  <metadata id="CorelCorpID_0Corel-Layer"/>
  <path class="fil0" d="M126.1 13.2l42.96 0.62 -29.44 50.51c-13.55,36.26 -55.48,66.61 -33.64,119.76 22.54,54.84 73.66,48.2 114.1,48.62l-42.52 75.41 44.89 77.55 39.47 -66.86c24.72,-42.69 52.31,-86.18 22.6,-134.76l-13.36 -13.78c-26.9,-20.94 -54.51,-14.37 -90.88,-17.12l80.39 -139.37 42.18 -0.59 -59.12 103.54 135.38 1.02 65.75 -117.75 -444.86 0.09c0.74,3.56 55.99,102.67 66.44,115.69l59.67 -102.58z"/>
 </g>
</svg>
